<?xml version="1.0" encoding="UTF-8"?>
<svg width="172px" height="98px" viewBox="0 0 172 98" version="1.1" xmlns="http://www.w3.org/2000/svg" xmlns:xlink="http://www.w3.org/1999/xlink">
    <title>COAST4C_Logo_FINAL_Stacked</title>
    <g id="Page-1" stroke="none" stroke-width="1" fill="none" fill-rule="evenodd">
        <g id="HOME" transform="translate(-227.000000, -5028.000000)" fill="#59ABF7" fill-rule="nonzero">
            <g id="COAST4C_Logo_FINAL_Stacked" transform="translate(227.000000, 5028.000000)">
                <g id="Group" transform="translate(0.000000, 74.000000)">
                    <path d="M10.540708,23.883871 C4.16681416,23.883871 0.057079646,19.4903226 0.057079646,12.9096774 C0.057079646,8.45806452 1.80752212,4.83870968 4.87079646,2.80645161 C7.21106195,1.27741935 10.7880531,0.348387097 11.1495575,0.348387097 C13.2995575,0.348387097 15.8110619,0.967741935 17.7327434,2.03225806 L16.3628319,5.92258065 C16.229646,5.96129032 15.2022124,5.96129032 15.0880531,5.92258065 L11.0163717,3.92903226 C10.9212389,3.92903226 10.8261062,3.92903226 10.7309735,3.92903226 C7.09690265,3.92903226 4.79469027,6.87096774 4.79469027,11.883871 C4.79469027,17.0709677 7.28716814,19.9935484 11.6632743,19.9935484 C13.4707965,19.9935484 15.3924779,19.4903226 17.1429204,18.5032258 L18.2654867,21.6 C15.6017699,23.1483871 13.2044248,23.883871 10.540708,23.883871 Z" id="Path"></path>
                    <path d="M35.1230088,23.9225806 C28.539823,23.9225806 24.1256637,19.2774194 24.1256637,12.3096774 C24.1256637,8.18709677 25.6858407,5.03225806 28.6920354,3.01935484 C31.1845133,1.33548387 34.8566372,0.367741935 35.2561947,0.367741935 C41.8393805,0.367741935 46.2535398,5.01290323 46.2535398,12 C46.2535398,16.083871 44.6933628,19.2387097 41.6871681,21.2709677 C39.1946903,22.9354839 35.5225664,23.9225806 35.1230088,23.9225806 Z M35.5606195,20.3419355 C39.1376106,20.3419355 41.3827434,17.4967742 41.3827434,12.6387097 C41.3827434,7.39354839 38.7761062,3.90967742 34.8185841,3.90967742 C31.2415929,3.90967742 28.9964602,6.75483871 28.9964602,11.6129032 C28.9964602,16.8580645 31.6221239,20.3419355 35.5606195,20.3419355 Z" id="Shape"></path>
                    <path d="M55.8429204,18.6 C55.1389381,20.9419355 54.6442478,22.5870968 54.4730088,23.283871 L50.2110619,23.283871 C50.1730088,23.1483871 50.1730088,21.3290323 50.2110619,21.1935484 C52.2278761,16.6451613 55.4814159,8.53548387 58.3353982,1.04516129 L62.5973451,0.909677419 C65.4132743,8.53548387 68.6097345,16.6258065 70.6265487,21.1935484 C70.6646018,21.3096774 70.6646018,23.1483871 70.6265487,23.283871 L66.0982301,23.283871 C65.9079646,22.5870968 65.3942478,20.9032258 64.6331858,18.5806452 C63.700885,18.5225806 62.8637168,18.5225806 61.5699115,18.5225806 C58.8110619,18.5032258 57.1747788,18.5225806 55.8429204,18.6 Z M63.4725664,15.1741935 C62.5402655,12.3096774 61.3606195,8.80645161 60.0477876,4.97419355 C58.8300885,8.84516129 57.7455752,12.2709677 56.8323009,15.1935484 C57.4411504,15.1935484 58.1070796,15.1935484 58.8300885,15.1935484 C60.6946903,15.1935484 62.2548673,15.1935484 63.4725664,15.1741935 Z" id="Shape"></path>
                    <path d="M83.4314159,23.9225806 C80.8438053,23.9225806 78.1610619,23.1096774 76.1632743,21.7354839 L77.7615044,17.4580645 C79.930531,19.2 82.1756637,20.2064516 84.1163717,20.2064516 C85.9238938,20.2064516 86.970354,19.2967742 86.970354,17.7096774 C86.970354,16.3741935 86.2853982,15.6193548 84.5159292,14.8645161 L81.3384956,13.5290323 C78.1800885,12.2322581 76.7150442,10.2580645 76.7150442,7.41290323 C76.7150442,5.20645161 77.5712389,3.42580645 79.3026549,2.26451613 C81.0150442,1.08387097 83.9070796,0.329032258 84.2495575,0.329032258 C86.5137168,0.329032258 88.8539823,0.890322581 90.9088496,1.91612903 L89.4438053,6.05806452 C89.329646,6.09677419 88.2831858,6.09677419 88.1690265,6.05806452 L84.0212389,3.90967742 C83.9261062,3.90967742 83.8690265,3.90967742 83.8119469,3.90967742 C82.0424779,3.90967742 81.0530973,4.78064516 81.0530973,6.3483871 C81.0530973,7.62580645 81.7570796,8.4 83.6597345,9.21290323 L86.8371681,10.5483871 C89.9004425,11.8258065 91.3084071,13.7612903 91.3084071,16.5870968 C91.3084071,18.8709677 90.4522124,20.6322581 88.7588496,21.7741935 C87.1415929,22.8580645 83.8119469,23.9225806 83.4314159,23.9225806 Z" id="Path"></path>
                    <path d="M103.69469,23.283871 C103.884956,21.0967742 103.999115,16.916129 103.999115,12.9096774 L103.999115,11.4 C103.999115,8.90322581 103.961062,6.40645161 103.865929,4.35483871 C101.696903,4.41290323 99.6420354,4.60645161 98.6716814,4.8 C98.519469,4.83870968 97.2446903,4.74193548 97.1115044,4.66451613 L97.2256637,0.870967742 C98.690708,0.929032258 102.09646,1.00645161 105.40708,1.00645161 L107.062389,1.00645161 C110.487168,1.00645161 113.778761,0.948387097 115.243805,0.870967742 L114.882301,4.66451613 C114.749115,4.72258065 113.474336,4.85806452 113.322124,4.81935484 C112.465929,4.60645161 110.582301,4.41290323 108.508407,4.35483871 C108.413274,6.44516129 108.375221,8.94193548 108.375221,11.3806452 L108.375221,12.9096774 C108.375221,17.0322581 108.508407,21.1741935 108.679646,23.3225806 L103.69469,23.283871 L103.69469,23.283871 Z" id="Path"></path>
                    <path d="M130.731416,18.7548387 C130.122566,17.8064516 129.532743,16.6064516 129.304425,15.6 C131.359292,13.0064516 135.373894,7.62580645 139.350442,2.07096774 C140.85354,2.01290323 142.661062,2.03225806 143.859735,2.20645161 C143.669469,4.2 143.574336,8.18709677 143.574336,12 L143.574336,13.4709677 C143.574336,14.2258065 143.574336,15 143.574336,15.716129 C144.677876,15.716129 145.724336,15.6774194 146.580531,15.6580645 L146.180973,18.8129032 C145.381858,18.7741935 144.525664,18.7548387 143.631416,18.7548387 C143.669469,20.6322581 143.764602,22.2774194 143.840708,23.3419355 L139.217257,23.3419355 C139.312389,22.2193548 139.407522,20.5935484 139.464602,18.6967742 C139.217257,18.6967742 138.969912,18.6967742 138.760619,18.6967742 C135.050442,18.6193548 132.405752,18.6580645 130.731416,18.7548387 Z M139.559735,6.71612903 C137.295575,9.98709677 135.107522,13.2 133.452212,15.6580645 L139.521681,15.6580645 C139.521681,14.9032258 139.521681,14.1677419 139.521681,13.4129032 L139.559735,6.71612903 Z" id="Shape"></path>
                    <path d="M164.199115,23.6903226 C157.825221,23.6903226 153.715487,19.2967742 153.715487,12.716129 C153.715487,8.26451613 155.465929,4.64516129 158.529204,2.61290323 C160.850442,1.08387097 164.44646,0.15483871 164.807965,0.15483871 C166.957965,0.15483871 169.469469,0.774193548 171.39115,1.83870968 L170.021239,5.72903226 C169.888053,5.76774194 168.860619,5.76774194 168.74646,5.72903226 L164.674779,3.73548387 C164.579646,3.73548387 164.484513,3.73548387 164.389381,3.73548387 C160.75531,3.73548387 158.453097,6.67741935 158.453097,11.6903226 C158.453097,16.8774194 160.945575,19.8 165.321681,19.8 C167.129204,19.8 169.050885,19.2967742 170.801327,18.3096774 L171.923894,21.4064516 C169.279204,22.9548387 166.881858,23.6903226 164.199115,23.6903226 Z" id="Path"></path>
                </g>
                <g id="Group" transform="translate(14.000000, 0.000000)">
                    <path d="M103.005256,53.5100592 C105.444152,52.904142 106.339685,47.1668639 106.51117,42.887574 C106.606439,40.1230769 106.777924,37.2828402 107.063732,34.5183432 C107.368594,32.0378698 108.28318,29.7467456 109.693167,27.6828402 C110.817346,26.035503 112.513141,24.7289941 114.323259,24.1230769 C116.704993,23.3088757 118.019711,23.5360947 119.829829,24.4449704 C122.954665,26.0733728 124.936268,29.0650888 125.622208,31.7727811 C126.365309,34.764497 126.822602,37.7372781 127.222733,40.7857988 C127.680026,44.2508876 128.63272,47.5076923 130.347569,50.4994083 C131.852825,53.2828402 134.13929,54.191716 137.016426,53.2639053 C138.693167,52.7337278 140.731932,51.2946746 141.436925,50.1775148 C142.561104,48.4544379 142.160972,47.6213018 143.418528,47.6402367 C145.362024,47.583432 144.885677,55.0627219 144.447438,56.9183432 C143.72339,60.0236686 141.26544,61.4627219 138.826544,62.7502959 C136.10184,64.2461538 133.167543,63.9431953 130.2523,63.1668639 C127.546649,62.4473373 125.050591,61.2544379 123.316689,58.8118343 C121.525624,56.3692308 120.229961,54.1538462 119.201051,51.4461538 C117.028909,45.6899408 117.067017,39.6686391 117.409987,33.7798817 C117.486202,32.7384615 117.429041,31.6970414 117.429041,30.6556213 C117.448095,29.2733728 116.609724,28.4970414 115.352168,28.3455621 C114.247043,28.1940828 113.256242,28.0426036 112.494087,29.4248521 C111.141261,31.6970414 110.912615,34.1207101 110.969777,36.6769231 C111.007884,39.9337278 112.01774,43.3230769 111.655716,46.5798817 C111.274639,49.8366864 109.921813,52.9988166 105.863338,56.2934911 C101.576216,59.8532544 94.6977661,58.2816568 91.9540079,53.8887574 C90.2963206,51.3136095 89.8390276,48.5491124 89.4579501,45.6331361 C89.1340342,42.8686391 89.0197109,40.0284024 88.7720105,37.2449704 C88.7148489,36.8284024 88.5052562,35.5786982 87.8193167,35.3704142 C86.5045992,35.0863905 84.7325887,38.7408284 84.4277267,41.0887574 C83.9894875,44.4023669 83.6655716,47.6591716 83.303548,50.9727811 C82.9986859,53.5289941 81.7220762,55.7443787 80.0453351,57.5810651 C79.0545335,58.6792899 78.5019711,59.2284024 77.3015769,60.1183432 C76.9586071,60.383432 75.8344284,61.0840237 75.4152431,61.216568 C73.738502,61.8224852 72.1379763,62.0118343 70.1944809,61.5952663 C68.5939553,61.235503 67.1458607,60.4591716 65.7549277,59.4745562 C63.0492773,57.5053254 61.7536137,55.0816568 61.1438896,52.1656805 C60.6103811,49.4579882 60.4198423,46.5609467 60.7247043,43.7775148 C61.0295664,41.1455621 62.0965834,38.5893491 62.8777924,36.052071 C63.4494087,34.3289941 64.5926413,31.8485207 65.0118265,29.9739645 C65.5262812,27.7585799 65.3929041,25.7514793 65.0689882,23.7443787 C64.8784494,22.5704142 63.7733246,20.5443787 61.6202365,20.260355 C59.9434954,20.0331361 59.0289093,20.9988166 57.9809461,21.8887574 C56.4375821,23.252071 54.7989488,26.9822485 54.4178712,30.4473373 C54.2654402,31.9621302 54.2463863,34.3857988 54.0177398,35.843787 C53.5795007,39.2331361 52.7030223,42.4710059 51.3501971,45.7278107 C50.4927727,47.791716 49.5019711,49.4579882 47.7490145,50.7455621 C46.281866,51.843787 44.2621551,51.9573964 42.7950066,51.4650888 C38.6984231,50.1207101 35.4402102,47.9431953 33.4586071,44.1183432 C32.6392904,42.452071 31.8199737,40.6343195 30.7910644,39.043787 C29.8383706,37.5100592 28.8666229,36.052071 27.6281209,34.8591716 C25.6274639,32.9656805 24.7890933,33.0414201 23.3791064,35.0295858 C22.5407359,36.2035503 21.9691196,37.7183432 21.8166886,39.1763314 C21.435611,42.6414201 21.6070959,46.1633136 21.2450723,49.6852071 C21.0164258,51.8248521 20.7306176,53.547929 19.5111695,56.104142 C19.0919842,57.0698225 18.3869908,58.035503 17.5295664,58.8497041 C15.2049934,61.3301775 12.6898817,63.1668639 8.91721419,63.8295858 C5.35413929,64.4923077 1.25755585,62.9964497 0.838370565,62.6556213 C0.571616294,62.3715976 -0.133377135,61.6710059 0.228646518,61.0650888 C0.438239159,60.6485207 1.14323259,60.8 1.56241787,60.8 C4.34428384,60.8189349 5.54467806,59.8721893 6.11629435,57.0319527 C6.55453351,54.7597633 6.91655716,52.4686391 7.22141919,50.1207101 C7.88830486,44.7242604 10.022339,39.895858 13.261498,35.635503 C14.4618922,34.1207101 18.4632063,30.2769231 19.8731932,29.3869822 C22.2549277,27.947929 24.3508541,27.9100592 24.9034166,27.8343195 C28.5236531,27.7207101 31.7247043,29.1408284 34.7733246,31.1100592 C36.71682,32.3786982 38.1458607,34.8023669 38.6984231,36.052071 C39.4415243,37.7940828 40.0512484,39.6686391 40.8134034,41.391716 C41.3659658,42.5656805 42.261498,43.4745562 43.7858081,43.5692308 C45.4625493,43.6449704 47.4822602,42.6982249 47.9204993,40.7668639 C48.9303548,36.2792899 48.5492773,31.564497 50.8166886,27.4934911 C52.6649146,24.1798817 54.9894875,20.9609467 58.6859396,19.2568047 C61.696452,17.8934911 65.5834428,18.9727811 68.0795007,20.8662722 C70.2897503,22.5514793 71.109067,24.8994083 71.2996058,27.2662722 C71.5473062,30.1822485 71.109067,33.2118343 70.9375821,36.1846154 C70.8613666,37.2260355 70.7089356,38.2674556 70.7089356,39.2899408 C70.6708279,42.887574 70.4421813,46.5609467 70.6898817,50.1585799 C70.8804205,52.4497041 71.0137976,53.6994083 71.7568988,55.9147929 C72.0236531,56.956213 73.2049934,57.5242604 74.1767411,57.0508876 C76.5584757,56.1798817 77.5492773,53.4153846 78.1399474,50.7076923 C78.8639947,47.2615385 79.5308804,43.7964497 80.521682,40.4071006 C81.3791064,37.6426036 82.8653088,34.9538462 85.5900131,33.8745562 C87.1905388,33.1928994 91.3061761,33.3065089 93.4402102,35.3325444 C95.7838371,37.5668639 96.9461235,40.2745562 97.6892247,43.2662722 C98.6419185,46.8071006 98.8134034,49.0982249 100.604468,52.3550296 C101.347569,53.3585799 102.452694,53.6426036 103.005256,53.5100592 Z" id="Path"></path>
                    <path d="M119.73456,6.02130178 C124.688568,4.75266272 129.928384,10.8118343 128.63272,15.3751479 C127.984888,17.6473373 127.775296,18.139645 126.098555,19.3704142 C124.421813,20.6011834 123.164258,20.5822485 122.325887,20.7147929 C119.181997,21.0366864 116.838371,19.635503 114.418528,17.7420118 C111.865309,15.7727811 111.693824,9.95976331 114.704336,8.12307692 C116.304862,7.10059172 119.658344,6.02130178 119.73456,6.02130178 Z" id="Path"></path>
                    <path d="M56.6852825,6.66508876 C56.7805519,3.61656805 59.1622865,2.17751479 61.544021,1.02248521 C63.2207622,0.208284024 65.0308804,-0.397633136 66.9743758,0.511242604 C68.6320631,1.36331361 69.9467806,2.40473373 70.499343,4.27928994 C70.7089356,5.03668639 71.4520368,6.85443787 70.5374507,8.9183432 C69.10841,12.0994083 67.8508541,14.295858 63.868594,14.3905325 C59.3337714,14.5798817 56.0755585,11.304142 56.6852825,6.66508876 Z" id="Path"></path>
                    <path d="M24.0269382,5.47218935 C25.2844941,5.62366864 26.4658344,6.19171598 27.2851511,6.94911243 C30.3337714,9.6 29.7240473,15.9053254 27.8186597,18.5183432 C26.4848883,20.3739645 22.5026281,20.1278107 20.9973719,18.8023669 C19.8160315,17.8177515 18.6537451,16.7005917 17.8153745,15.4508876 C15.2621551,11.6828402 16.3291721,9.41065089 19.2063075,6.94911243 C20.5972405,5.73727811 22.21682,5.26390533 24.0269382,5.47218935 Z" id="Path"></path>
                    <path d="M90.086728,17.6852071 C91.0584757,17.8366864 92.5827858,18.4047337 93.3449409,19.0295858 C93.8975033,19.5218935 94.869251,20.7715976 95.2122208,21.4721893 C96.1649146,23.4224852 95.3074901,26.6035503 94.5262812,27.5502959 C93.478318,28.8568047 90.9441524,30.0118343 88.6576873,29.5005917 C87.4001314,29.216568 86.2187911,28.7242604 85.1898817,28.0236686 C83.1892247,26.7550296 82.2936925,24.3313609 83.151117,22.191716 C83.5703022,21.0934911 84.6944809,20.260355 85.5519054,19.3704142 C86.3140604,18.6130178 87.8574244,17.3822485 90.086728,17.6852071 Z" id="Path"></path>
                </g>
            </g>
        </g>
    </g>
</svg>