<?xml version="1.0" encoding="UTF-8"?>
<svg width="197px" height="29px" viewBox="0 0 197 29" version="1.1" xmlns="http://www.w3.org/2000/svg" xmlns:xlink="http://www.w3.org/1999/xlink">
    <title>COAST4C_Logo_FINAL_Unstacked</title>
    <g id="Page-1" stroke="none" stroke-width="1" fill="none" fill-rule="evenodd">
        <g id="HOME" transform="translate(-50.000000, -42.000000)" fill="#59ABF7" fill-rule="nonzero">
            <g id="HEADER" transform="translate(50.000000, 5.000000)">
                <g id="COAST4C_Logo_FINAL_Unstacked" transform="translate(0.000000, 37.000000)">
                    <path d="M79.6284289,29 C74.3790524,29 71,25.4584696 71,20.1399608 C71,16.5487247 72.4339152,13.6285154 74.9650873,11.9882276 C76.8977556,10.7580118 79.840399,10 80.1396509,10 C81.9102244,10 83.9800499,10.5094833 85.563591,11.3544801 L84.4413965,14.4859385 C84.3291771,14.5232178 83.4937656,14.5232178 83.394015,14.4859385 L80.0399002,12.8953564 C79.9650873,12.8953564 79.8778055,12.8953564 79.8029925,12.8953564 C76.8104738,12.8953564 74.915212,15.2812296 74.915212,19.3073905 C74.915212,23.4950948 76.9725686,25.8436887 80.5760599,25.8436887 C82.0598504,25.8436887 83.6433915,25.4336167 85.0773067,24.6507521 L86,27.1608895 C83.8054863,28.4159581 81.8354115,29 79.6284289,29 Z" id="Path"></path>
                    <g id="Group" transform="translate(71.000000, 10.000000)">
                        <path d="M8.50135135,18.9506494 C3.38108108,18.9506494 0.0851351351,15.4344156 0.0851351351,10.1538961 C0.0851351351,6.58831169 1.48378378,3.68896104 3.9527027,2.06038961 C5.83783784,0.838961039 8.70810811,0.0863636364 9,0.0863636364 C10.727027,0.0863636364 12.7459459,0.592207792 14.2905405,1.43116883 L13.1959459,4.54025974 C13.0864865,4.57727273 12.2716216,4.57727273 12.1743243,4.54025974 L8.9027027,2.96103896 C8.82972973,2.96103896 8.74459459,2.96103896 8.67162162,2.96103896 C5.7527027,2.96103896 3.90405405,5.32987013 3.90405405,9.32727273 C3.90405405,13.4850649 5.91081081,15.8168831 9.42567568,15.8168831 C10.872973,15.8168831 12.4175676,15.4097403 13.8162162,14.6324675 L14.7162162,17.1246753 C12.5756757,18.3707792 10.6540541,18.9506494 8.50135135,18.9506494 Z" id="Path"></path>
                        <path d="M26.4162162,18.9876623 C21.1256757,18.9876623 17.5743243,15.2616883 17.5743243,9.67272727 C17.5743243,6.36623377 18.827027,3.83701299 21.2472973,2.22077922 C23.2540541,0.875974026 26.1972973,0.0987012987 26.5256757,0.0987012987 C31.8162162,0.0987012987 35.3675676,3.82467532 35.3675676,9.42597403 C35.3675676,12.6954545 34.1148649,15.237013 31.6945946,16.8532468 C29.6878378,18.1980519 26.7445946,18.9876623 26.4162162,18.9876623 Z M26.7689189,16.1253247 C29.6391892,16.1253247 31.4391892,13.8428571 31.4391892,9.95649351 C31.4391892,5.74935065 29.3472973,2.96103896 26.1608108,2.96103896 C23.2905405,2.96103896 21.4905405,5.24350649 21.4905405,9.12987013 C21.5027027,13.337013 23.5945946,16.1253247 26.7689189,16.1253247 Z" id="Shape"></path>
                        <path d="M42.6527027,14.7311688 C42.0810811,16.6064935 41.6918919,17.9266234 41.5581081,18.4818182 L38.1283784,18.4818182 C38.0918919,18.3707792 38.0918919,16.9149351 38.1283784,16.8038961 C39.7459459,13.1519481 42.3608108,6.66233766 44.6472973,0.653896104 L48.077027,0.542857143 C50.3391892,6.65 52.9054054,13.1396104 54.522973,16.7792208 C54.5594595,16.8779221 54.5594595,18.3461039 54.522973,18.4571429 L50.8864865,18.4571429 C50.7283784,17.8896104 50.3148649,16.5448052 49.7189189,14.6818182 C48.9648649,14.6324675 48.2959459,14.6324675 47.25,14.6324675 C45.0364865,14.6448052 43.7351351,14.6694805 42.6527027,14.7311688 Z M48.7945946,11.9922078 C48.0405405,9.6974026 47.0918919,6.89675325 46.0459459,3.82467532 C45.072973,6.92142857 44.1972973,9.67272727 43.4675676,12.0045455 C43.9662162,12.0045455 44.4891892,12.0045455 45.072973,12.0045455 C46.5567568,12.0045455 47.7972973,12.0045455 48.7945946,11.9922078 Z" id="Shape"></path>
                        <path d="M63.7297297,18.9876623 C61.65,18.9876623 59.4972973,18.3337662 57.8797297,17.2357143 L59.1567568,13.8058442 C60.8959459,15.2 62.7081081,16.0142857 64.2648649,16.0142857 C65.7121622,16.0142857 66.5635135,15.274026 66.5635135,14.0155844 C66.5635135,12.9545455 66.0040541,12.3376623 64.5932432,11.7331169 L62.0513514,10.6720779 C59.5216216,9.63571429 58.3297297,8.05649351 58.3297297,5.77402597 C58.3297297,4.00974026 59.022973,2.57857143 60.4094595,1.64090909 C61.7837838,0.703246753 64.1067568,0.0863636364 64.3864865,0.0863636364 C66.2108108,0.0863636364 68.0837838,0.542857143 69.7378378,1.35714286 L68.5702703,4.67597403 C68.472973,4.71298701 67.6459459,4.71298701 67.5486486,4.67597403 L64.2162162,2.9487013 C64.1432432,2.9487013 64.0945946,2.9487013 64.0459459,2.9487013 C62.622973,2.9487013 61.8202703,3.65194805 61.8202703,4.91038961 C61.8202703,5.92207792 62.3918919,6.5512987 63.9121622,7.20519481 L66.4540541,8.26623377 C68.922973,9.27792208 70.0540541,10.8324675 70.0540541,13.1025974 C70.0540541,14.9285714 69.3608108,16.3474026 67.9986486,17.2603896 C66.7094595,18.1363636 64.0459459,18.9876623 63.7297297,18.9876623 Z" id="Path"></path>
                        <path d="M78.5675676,18.4818182 C78.7256757,16.7298701 78.8108108,13.3863636 78.8108108,10.1785714 L78.8108108,8.95714286 C78.8108108,6.95844156 78.7743243,4.9474026 78.7013514,3.30649351 C76.9621622,3.35584416 75.3081081,3.5038961 74.5175676,3.66428571 C74.3959459,3.7012987 73.3743243,3.61493506 73.2648649,3.55324675 L73.3621622,0.518181818 C74.5297297,0.567532468 77.2783784,0.629220779 79.9297297,0.629220779 L81.2554054,0.629220779 C84.0040541,0.629220779 86.6554054,0.57987013 87.822973,0.518181818 L87.5310811,3.55324675 C87.4216216,3.6025974 86.4,3.71363636 86.2783784,3.67662338 C85.5851351,3.5038961 84.077027,3.34350649 82.4108108,3.30649351 C82.3378378,4.98441558 82.3013514,6.98311688 82.3013514,8.94480519 L82.3013514,10.1662338 C82.3013514,13.4727273 82.4108108,16.7792208 82.5445946,18.5064935 L78.5675676,18.4818182 L78.5675676,18.4818182 Z" id="Path"></path>
                        <path d="M94.9378378,14.8545455 C94.4391892,14.0896104 93.977027,13.1272727 93.7945946,12.3253247 C95.4486486,10.2402597 98.6716216,5.94675325 101.858108,1.48051948 C103.062162,1.43116883 104.509459,1.44350649 105.482432,1.59155844 C105.324324,3.18311688 105.251351,6.37857143 105.251351,9.42597403 L105.251351,10.5980519 C105.251351,11.2025974 105.251351,11.8194805 105.251351,12.3993506 C106.127027,12.3993506 106.978378,12.3623377 107.671622,12.35 L107.343243,14.8792208 C106.698649,14.8422078 106.017568,14.8298701 105.287838,14.8298701 C105.324324,16.3350649 105.397297,17.6428571 105.458108,18.5064935 L101.736486,18.5064935 C101.809459,17.6181818 101.894595,16.2980519 101.931081,14.7805195 C101.736486,14.7805195 101.52973,14.7805195 101.359459,14.7805195 C98.4162162,14.7435065 96.2878378,14.7805195 94.9378378,14.8545455 Z M102.040541,5.21883117 C100.216216,7.83441558 98.4648649,10.412987 97.1391892,12.387013 L102.016216,12.387013 C102.016216,11.7824675 102.016216,11.2025974 102.016216,10.5857143 L102.040541,5.21883117 Z" id="Shape"></path>
                        <path d="M119.675676,18.9506494 C114.555405,18.9506494 111.259459,15.4344156 111.259459,10.1538961 C111.259459,6.58831169 112.658108,3.68896104 115.127027,2.06038961 C116.987838,0.838961039 119.882432,0.0863636364 120.174324,0.0863636364 C121.901351,0.0863636364 123.92027,0.592207792 125.464865,1.43116883 L124.37027,4.54025974 C124.260811,4.57727273 123.445946,4.57727273 123.348649,4.54025974 L120.077027,2.9487013 C120.004054,2.9487013 119.918919,2.9487013 119.845946,2.9487013 C116.927027,2.9487013 115.078378,5.31753247 115.078378,9.31493506 C115.078378,13.4727273 117.085135,15.8045455 120.6,15.8045455 C122.047297,15.8045455 123.591892,15.3974026 124.990541,14.6201299 L125.890541,17.1123377 C123.762162,18.3707792 121.828378,18.9506494 119.675676,18.9506494 Z" id="Path"></path>
                    </g>
                    <g id="Group">
                        <path d="M46.2003781,24.2567797 C47.2939509,23.9864407 47.6994329,21.3936441 47.7731569,19.4521186 C47.8100189,18.1987288 47.8960302,16.9207627 48.0189036,15.6673729 C48.1540643,14.5491525 48.5718336,13.5169492 49.1984877,12.5830508 C49.7022684,11.8334746 50.4640832,11.2436441 51.2750473,10.9733051 C52.3440454,10.604661 52.9338374,10.7029661 53.7448015,11.1207627 C55.1455577,11.8580508 56.0425331,13.2097458 56.3497164,14.4385593 C56.6814745,15.7902542 56.8903592,17.129661 57.0623819,18.5059322 C57.2712665,20.0665254 57.7013233,21.5411017 58.463138,22.8927966 C59.1389414,24.1461864 60.1710775,24.5639831 61.4612476,24.1461864 C62.210775,23.9127119 63.1323251,23.2614407 63.4517958,22.745339 C63.9555766,21.9711864 63.7712665,21.5902542 64.3364839,21.6025424 C65.2088847,21.5779661 65,24.9572034 64.8034026,25.7927966 C64.4839319,27.1936441 63.3780718,27.8449153 62.2844991,28.4224576 C61.0557656,29.0983051 59.7410208,28.9630842 58.4385633,28.6067797 C57.2221172,28.2872881 56.1039698,27.7466102 55.3298677,26.640678 C54.5311909,25.5347458 53.9413989,24.5394068 53.4867675,23.3105932 C52.5160681,20.7055085 52.5283554,17.9898305 52.6880907,15.3233051 C52.7249527,14.8563559 52.7003781,14.3771186 52.7003781,13.9101695 C52.7126654,13.2834746 52.331758,12.9394068 51.7665406,12.865678 C51.2750473,12.7919492 50.8204159,12.7305085 50.4886578,13.3572034 C49.8865784,14.3894068 49.7759924,15.4830508 49.8005671,16.6381356 C49.8128544,18.1127119 50.2674858,19.6364407 50.1077505,21.1110169 C49.9357278,22.5855932 49.3336484,24.0110169 47.5028355,25.4978814 C45.573724,27.1076271 42.489603,26.3949153 41.2608696,24.4165254 C40.5113422,23.2491525 40.3147448,22.0080508 40.1427221,20.6809322 C39.9952741,19.4275424 39.9461248,18.1495763 39.8355388,16.8838983 C39.8109641,16.6995763 39.7126654,16.134322 39.405482,16.0360169 C38.81569,15.9131356 38.0170132,17.5597458 37.8818526,18.6165254 C37.6852552,20.115678 37.5378072,21.5902542 37.3780718,23.0894068 C37.2429112,24.2444915 36.6654064,25.2398305 35.915879,26.0754237 C35.473535,26.5669492 35.2277883,26.825 34.6871456,27.2182203 C34.5274102,27.3411017 34.0236295,27.6605932 33.8393195,27.7097458 C33.0897921,27.9800847 32.3648393,28.0661017 31.4924386,27.8817797 C30.7797732,27.7220339 30.1285444,27.365678 29.5018904,26.9233051 C28.2854442,26.0385593 27.7079395,24.9326271 27.4253308,23.6177966 C27.1918715,22.3889831 27.1058601,21.0864407 27.2410208,19.8207627 C27.3761815,18.6288136 27.8553875,17.4737288 28.2117202,16.3309322 C28.4697543,15.5567797 28.9858223,14.4262712 29.1701323,13.5783898 C29.4035917,12.5830508 29.342155,11.6737288 29.194707,10.7644068 C29.1086957,10.2360169 28.6172023,9.31440678 27.6465028,9.19152542 C26.8969754,9.09322034 26.479206,9.52330508 26.0122873,9.92881356 C25.3241966,10.5432203 24.5869565,12.2266949 24.4149338,13.7995763 C24.3412098,14.4877119 24.3412098,15.5813559 24.2306238,16.2326271 C24.0340265,17.7686441 23.6408318,19.2309322 23.0387524,20.7055085 C22.657845,21.6394068 22.2032136,22.3889831 21.4168242,22.9788136 C20.7533081,23.470339 19.8563327,23.5317797 19.1928166,23.2983051 C17.3497164,22.6961864 15.8875236,21.7008475 15.0028355,19.9805085 C14.6342155,19.2309322 14.2655955,18.4076271 13.8109641,17.6826271 C13.3809074,16.9944915 12.9508507,16.3309322 12.3856333,15.7902542 C11.4886578,14.9300847 11.1077505,14.9669492 10.4810964,15.8639831 C10.100189,16.3923729 9.84215501,17.0805085 9.78071834,17.7440678 C9.60869565,19.304661 9.68241966,20.9021186 9.52268431,22.4995763 C9.42438563,23.470339 9.28922495,24.2444915 8.74858223,25.3995763 C8.56427221,25.8419492 8.24480151,26.2720339 7.86389414,26.640678 C6.8194707,27.7588983 5.68903592,28.5944915 3.99338374,28.8894068 C2.39603025,29.184322 0.552930057,28.5084746 0.368620038,28.3610169 C0.245746692,28.2381356 -0.0737240076,27.9186441 0.0982986767,27.6483051 C0.196597353,27.4639831 0.503780718,27.5254237 0.700378072,27.5254237 C1.9536862,27.5377119 2.49432892,27.1076271 2.74007561,25.8173729 C2.93667297,24.7851695 3.09640832,23.7529661 3.231569,22.6961864 C3.52646503,20.2631356 4.48487713,18.0758475 5.94706994,16.1466102 C6.48771267,15.4584746 8.28166352,13.7258475 8.92060491,13.320339 C9.98960302,12.6690678 10.9357278,12.6567797 11.1814745,12.6199153 C12.8034026,12.5707627 14.2410208,13.2097458 15.6172023,14.0944915 C16.489603,14.6720339 17.1285444,15.765678 17.3742911,16.3309322 C17.7060491,17.1173729 17.9763705,17.9652542 18.3204159,18.7394068 C18.5661626,19.2677966 18.9716446,19.6855932 19.6597353,19.7224576 C20.4092628,19.759322 21.3185255,19.3292373 21.5151229,18.4567797 C21.9697543,16.4292373 21.7977316,14.3033898 22.8175803,12.4601695 C23.6531191,10.9610169 24.6975425,9.51101695 26.3563327,8.73686441 C27.7079395,8.12245763 29.452741,8.61398305 30.5708885,9.46186441 C31.5661626,10.2237288 31.9347826,11.2805085 32.020794,12.3495763 C32.13138,13.6644068 31.9347826,15.040678 31.8610586,16.3800847 C31.8241966,16.8470339 31.7627599,17.3262712 31.7627599,17.7809322 C31.7504726,19.4029661 31.6398866,21.0618644 31.7504726,22.6961864 C31.8364839,23.7283898 31.8979206,24.2936441 32.2296786,25.3012712 C32.352552,25.7682203 32.8809074,26.0262712 33.3109641,25.8173729 C34.3799622,25.4241525 34.8223062,24.1707627 35.0926276,22.9542373 C35.4120983,21.3936441 35.7192817,19.8330508 36.1616257,18.2970339 C36.5425331,17.0436441 37.2183365,15.8271186 38.4347826,15.3478814 C39.147448,15.040678 41.0028355,15.0898305 41.9612476,16.0114407 C43.0179584,17.0190678 43.5340265,18.2478814 43.8657845,19.5995763 C44.2958412,21.1970339 44.3695652,22.2292373 45.1805293,23.7038136 C45.4508507,24.195339 45.9546314,24.3182203 46.2003781,24.2567797 Z" id="Path"></path>
                        <path d="M53.7079395,2.80169492 C55.9319471,2.22415254 58.2911153,4.96440678 57.7013233,7.02881356 C57.4064272,8.06101695 57.3204159,8.28220339 56.5586011,8.83516949 C55.7967864,9.38813559 55.2438563,9.38813559 54.862949,9.43728814 C53.4499055,9.58474576 52.3931947,8.94576271 51.3119093,8.09788136 C50.1691871,7.21313559 50.0831758,4.58347458 51.4347826,3.74788136 C52.1720227,3.2809322 53.6833648,2.80169492 53.7079395,2.80169492 Z" id="Path"></path>
                        <path d="M25.3979206,3.08432203 C25.4347826,1.70805085 26.5160681,1.05677966 27.5850662,0.528389831 C28.3345936,0.159745763 29.1455577,-0.11059322 30.0179584,0.294915254 C30.7674858,0.675847458 31.3572779,1.15508475 31.6030246,2.0029661 C31.7013233,2.3470339 32.0330813,3.17033898 31.6153119,4.10423729 C30.9763705,5.54194915 30.4111531,6.53728814 28.6172023,6.57415254 C26.5897921,6.66016949 25.1275992,5.18559322 25.3979206,3.08432203 Z" id="Path"></path>
                        <path d="M10.7268431,2.5559322 C11.2920605,2.62966102 11.8204159,2.87542373 12.1890359,3.21949153 C13.5529301,4.41144068 13.2826087,7.26228814 12.4224953,8.45423729 C11.8204159,9.28983051 10.0387524,9.17923729 9.36294896,8.57711864 C8.83459357,8.13474576 8.30623819,7.6309322 7.93761815,7.06567797 C6.79489603,5.35762712 7.27410208,4.33771186 8.56427221,3.21949153 C9.19092628,2.66652542 9.91587902,2.45762712 10.7268431,2.5559322 Z" id="Path"></path>
                        <path d="M40.4007561,8.07330508 C40.8431002,8.1470339 41.5189036,8.39279661 41.862949,8.67542373 C42.1086957,8.89661017 42.5510397,9.46186441 42.6984877,9.78135593 C43.1285444,10.6661017 42.7353497,12.1038136 42.3913043,12.5338983 C41.9243856,13.1237288 40.7816635,13.6521186 39.7618147,13.4186441 C39.1965974,13.2957627 38.668242,13.0622881 38.2013233,12.7550847 C37.3043478,12.1775424 36.8988658,11.0838983 37.2797732,10.1254237 C37.4640832,9.63389831 37.9678639,9.2529661 38.3610586,8.84745763 C38.705104,8.49110169 39.3931947,7.93813559 40.4007561,8.07330508 Z" id="Path"></path>
                    </g>
                </g>
            </g>
        </g>
    </g>
</svg>